<svg width="20" height="20" viewBox="0 0 20 20" fill="none" xmlns="http://www.w3.org/2000/svg">
<path fill-rule="evenodd" clip-rule="evenodd" d="M16.0064 17.2207C15.7945 14.6831 14.0076 12.5915 11.6273 11.9228C12.8976 11.3128 13.7789 10.0181 13.7789 8.51752C13.7789 6.4341 12.0836 4.73886 9.99985 4.73886C7.9164 4.73886 6.22112 6.4341 6.22112 8.51752C6.22112 10.0181 7.10267 11.3128 8.37269 11.9228C5.99238 12.5915 4.20518 14.6831 3.99361 17.2207C1.92312 15.4956 0.602764 12.8993 0.602764 10C0.602764 4.81842 4.81819 0.602755 10.0002 0.602755C15.1818 0.602755 19.3972 4.81842 19.3972 10C19.3972 12.8993 18.0769 15.4956 16.0064 17.2207ZM9.99985 11.6934C8.24882 11.6934 6.82389 10.2688 6.82389 8.51752C6.82389 6.76652 8.24882 5.34161 10.0002 5.34161C11.7512 5.34161 13.1761 6.76652 13.1761 8.51752C13.1761 10.2688 11.7512 11.6934 10.0002 11.6934H9.99985ZM4.57377 17.6652C4.60662 14.6994 7.02672 12.2962 9.99985 12.2962C12.9682 12.2962 15.3849 14.6915 15.425 17.6661C13.8913 18.7544 12.0197 19.3972 10.0002 19.3972C7.97969 19.3972 6.1078 18.7544 4.57377 17.6652ZM10.0002 0C4.48577 0 0 4.486 0 10C0 15.514 4.48577 20 10.0002 20C15.5142 20 20 15.514 20 10C20 4.486 15.5142 0 10.0002 0Z" fill="white"/>
</svg>
