<svg width="24" height="24" viewBox="0 0 24 24" fill="none" xmlns="http://www.w3.org/2000/svg">
<mask id="mask0" mask-type="alpha" maskUnits="userSpaceOnUse" x="0" y="0" width="24" height="24">
<path fill-rule="evenodd" clip-rule="evenodd" d="M0 0H24V23.9999H0V0Z" fill="white"/>
</mask>
<g mask="url(#mask0)">
<path fill-rule="evenodd" clip-rule="evenodd" d="M18.5276 21.003C18.3748 21.1138 18.2195 21.2211 18.062 21.3237C17.9895 21.3708 17.9175 21.4179 17.8438 21.4642C17.6378 21.5916 17.4284 21.7125 17.2145 21.8259C17.1674 21.8508 17.1199 21.8744 17.0723 21.8988C16.5809 22.1506 16.0726 22.367 15.5503 22.5429C15.5319 22.549 15.5136 22.556 15.4948 22.5617C15.2212 22.6524 14.9441 22.7331 14.664 22.8025C14.6631 22.8025 14.6623 22.803 14.6614 22.803C14.3786 22.8728 14.0924 22.9308 13.8044 22.9784C13.7965 22.9797 13.7887 22.9814 13.7808 22.9827C13.5098 23.0268 13.2367 23.0587 12.9626 23.0831C12.9142 23.087 12.8657 23.0901 12.8169 23.0936C12.5459 23.1141 12.2736 23.1272 12 23.1272C11.7233 23.1272 11.4476 23.1137 11.1731 23.0931C11.1255 23.0897 11.078 23.0866 11.0308 23.0827C10.7542 23.0578 10.4788 23.0251 10.2061 22.9806C10.1939 22.9784 10.1817 22.9762 10.1695 22.9745C9.59258 22.8776 9.02487 22.7358 8.472 22.5503C8.45498 22.5446 8.43753 22.539 8.42051 22.5329C8.14604 22.4395 7.87462 22.3361 7.608 22.2217C7.60625 22.2209 7.60407 22.22 7.60233 22.2191C7.35011 22.1105 7.10269 21.99 6.85833 21.863C6.82647 21.8469 6.79418 21.8307 6.76276 21.8137C6.53978 21.6946 6.3216 21.5659 6.10647 21.4315C6.04276 21.3918 5.97949 21.3507 5.91665 21.3097C5.71855 21.1801 5.52305 21.0453 5.3328 20.903C5.31316 20.8878 5.2944 20.8721 5.27476 20.8572C5.28873 20.8494 5.30269 20.8415 5.31665 20.8337L8.76698 18.9516C9.36044 18.6283 9.72916 18.0069 9.72916 17.331L9.72873 15.7592L9.62836 15.6379C9.61876 15.627 8.67535 14.4793 8.31884 12.9254L8.27913 12.7526L8.13033 12.6562C7.92044 12.5209 7.79476 12.2936 7.79476 12.0488V10.5019C7.79476 10.299 7.88073 10.11 8.03782 9.9682L8.18182 9.83817V7.40762L8.17789 7.35046C8.17658 7.33999 8.04785 6.29053 8.78705 5.44791C9.41804 4.72879 10.4993 4.36355 12 4.36355C13.495 4.36355 14.5728 4.72573 15.2055 5.43962C15.9439 6.27351 15.823 7.3426 15.8221 7.35133L15.8182 9.83904L15.9622 9.96908C16.1188 10.1105 16.2052 10.2998 16.2052 10.5027V12.0497C16.2052 12.3608 15.9936 12.6431 15.6899 12.7374L15.473 12.8037L15.4032 13.0197C15.1457 13.8195 14.7792 14.5583 14.314 15.2155C14.1997 15.3769 14.0884 15.5205 13.9929 15.63L13.8847 15.7531V17.3672C13.8847 18.0706 14.2756 18.7033 14.9049 19.0175L18.5996 20.8651C18.6231 20.8764 18.6463 20.8886 18.6694 20.9013C18.6227 20.9362 18.5747 20.9689 18.5276 21.003ZM0.872727 11.9999C0.872727 5.8642 5.86429 0.87264 12 0.87264C18.1357 0.87264 23.1273 5.8642 23.1273 11.9999C23.1273 15.3062 21.6764 18.2787 19.3793 20.3187C19.2511 20.2302 19.1219 20.1503 18.9897 20.0844L15.295 18.2369C14.9633 18.071 14.7574 17.7381 14.7574 17.3672V16.0769C14.8429 15.9713 14.9332 15.8517 15.0266 15.7208C15.5049 15.0449 15.8884 14.2934 16.1681 13.4849C16.721 13.2222 17.078 12.6715 17.078 12.0497V10.5027C17.078 10.1244 16.9392 9.75744 16.6909 9.469V7.43249C16.7136 7.20602 16.7939 5.92791 15.8692 4.87366C15.065 3.95555 13.7633 3.49082 12 3.49082C10.2367 3.49082 8.93498 3.95555 8.13076 4.87322C7.20611 5.92748 7.2864 7.20559 7.30909 7.43206V9.46857C7.06124 9.757 6.92204 10.124 6.92204 10.5023V12.0492C6.92204 12.5297 7.1376 12.9778 7.50676 13.2802C7.86022 14.6652 8.58764 15.7129 8.85644 16.0681V17.331C8.85644 17.687 8.66225 18.0143 8.34938 18.1854L4.89905 20.0674C4.78909 20.1272 4.68 20.197 4.57091 20.2751C2.30225 18.2364 0.872727 15.2827 0.872727 11.9999ZM24 11.9999C24 5.38333 18.6166 -8.7738e-05 12 -8.7738e-05C5.38342 -8.7738e-05 0 5.38333 0 11.9999C0 15.4947 1.50284 18.6449 3.89498 20.8398L3.88364 20.8498L4.27287 21.1779C4.29818 21.1993 4.32567 21.2168 4.35098 21.2377C4.55782 21.4097 4.77207 21.572 4.99025 21.7295C5.06095 21.7806 5.13164 21.8316 5.20364 21.8814C5.43665 22.0419 5.67578 22.1942 5.92015 22.3391C5.97338 22.3701 6.02705 22.4006 6.08073 22.4312C6.34822 22.5835 6.62138 22.727 6.90109 22.8588C6.9216 22.8684 6.94255 22.8771 6.96305 22.8867C7.87462 23.3105 8.84771 23.6216 9.86531 23.8053C9.89193 23.8105 9.91854 23.8149 9.9456 23.8197C10.2615 23.8742 10.5809 23.9179 10.9043 23.9471C10.9436 23.9506 10.9828 23.9528 11.0225 23.9567C11.3446 23.9829 11.6701 23.9999 12 23.9999C12.3268 23.9999 12.6493 23.9829 12.9696 23.9576C13.0102 23.9537 13.0508 23.9515 13.0913 23.948C13.4121 23.9192 13.7289 23.8764 14.0417 23.8227C14.0688 23.8179 14.0963 23.8131 14.1233 23.8079C15.1257 23.6286 16.0848 23.324 16.9846 22.9112C17.0177 22.8959 17.0513 22.8815 17.0845 22.8662C17.3537 22.7393 17.6169 22.6027 17.8748 22.4574C17.9389 22.4211 18.0026 22.3845 18.0663 22.347C18.3011 22.2086 18.5319 22.0646 18.7562 21.9106C18.8369 21.8556 18.9159 21.7976 18.9958 21.74C19.1873 21.6021 19.3754 21.4598 19.5583 21.311C19.5988 21.2783 19.6425 21.2499 19.6822 21.2163L20.0815 20.8834L20.0697 20.8729C22.4828 18.6771 24 15.5126 24 11.9999Z" fill="#A72B2A"/>
</g>
</svg>
