<svg width="20" height="25" viewBox="0 0 20 25" fill="none" xmlns="http://www.w3.org/2000/svg">
<mask id="mask0" mask-type="alpha" maskUnits="userSpaceOnUse" x="0" y="6" width="20" height="19">
<path fill-rule="evenodd" clip-rule="evenodd" d="M0.000183105 6.30322H19.6387V24.607H0.000183105V6.30322Z" fill="white"/>
</mask>
<g mask="url(#mask0)">
<path fill-rule="evenodd" clip-rule="evenodd" d="M16.403 13.3052C16.3726 10.2508 18.8942 8.78511 19.0069 8.71109C17.5897 6.63903 15.3819 6.35472 14.5956 6.32237C12.7182 6.13168 10.9309 7.42825 9.97847 7.42825C9.02798 7.42825 7.55641 6.35031 5.99955 6.37776C3.95151 6.40815 2.06377 7.56894 1.00984 9.40276C-1.11712 13.092 0.465726 18.5606 2.53827 21.5547C3.55151 23.0184 4.75984 24.666 6.34465 24.6057C7.87308 24.5454 8.44906 23.617 10.2966 23.617C12.1437 23.617 12.6623 24.6057 14.2785 24.5743C15.9216 24.5449 16.9633 23.0827 17.9677 21.6131C19.1309 19.9126 19.6103 18.266 19.6388 18.1827C19.6025 18.166 16.4353 16.9528 16.403 13.3052Z" fill="white"/>
</g>
<mask id="mask1" mask-type="alpha" maskUnits="userSpaceOnUse" x="9" y="0" width="6" height="7">
<path fill-rule="evenodd" clip-rule="evenodd" d="M9.75861 0.490356H14.6468V6.05738H9.75861V0.490356Z" fill="white"/>
</mask>
<g mask="url(#mask1)">
<path fill-rule="evenodd" clip-rule="evenodd" d="M13.366 4.34069C14.2067 3.32011 14.7763 1.90197 14.6214 0.490204C13.4082 0.539223 11.9395 1.29658 11.0685 2.31618C10.2881 3.22109 9.60572 4.66177 9.78856 6.04805C11.142 6.15295 12.5224 5.35932 13.366 4.34069Z" fill="white"/>
</g>
</svg>
