
<svg version="1.1" id="Layer_1" xmlns="http://www.w3.org/2000/svg" xmlns:xlink="http://www.w3.org/1999/xlink" x="0px" y="0px"
	 width="20px" height="25px" viewBox="0 0 20 25" enable-background="new 0 0 20 25" xml:space="preserve">
<g>
	<defs>
		<filter id="Adobe_OpacityMaskFilter" filterUnits="userSpaceOnUse" x="0.18" y="6.254" width="19.638" height="18.305">
			<feColorMatrix  type="matrix" values="1 0 0 0 0  0 1 0 0 0  0 0 1 0 0  0 0 0 1 0"/>
		</filter>
	</defs>
	<mask maskUnits="userSpaceOnUse" x="0.18" y="6.254" width="19.638" height="18.305" id="mask0">
		<path fill="#FFFFFF" filter="url(#Adobe_OpacityMaskFilter)" d="M0.181,6.254h19.637v18.305H0.181V6.254z"/>
	</mask>
	<g mask="url(#mask0)">
		<path fill="#FFFFFF" d="M16.583,13.256c-0.028-3.054,2.492-4.52,2.604-4.594c-1.418-2.072-3.625-2.356-4.412-2.389
			c-1.877-0.19-3.664,1.106-4.616,1.106c-0.951,0-2.422-1.078-3.979-1.05C4.132,6.359,2.245,7.52,1.19,9.354
			c-2.127,3.689-0.544,9.158,1.529,12.152c1.013,1.463,2.221,3.111,3.806,3.051c1.528-0.061,2.104-0.988,3.952-0.988
			c1.847,0,2.365,0.988,3.981,0.957c1.644-0.028,2.685-1.491,3.688-2.961c1.164-1.701,1.644-3.348,1.672-3.432
			C19.783,18.117,16.616,16.902,16.583,13.256z"/>
	</g>
	<defs>
		<filter id="Adobe_OpacityMaskFilter_1_" filterUnits="userSpaceOnUse" x="9.939" y="0.441" width="4.889" height="5.567">
			<feColorMatrix  type="matrix" values="1 0 0 0 0  0 1 0 0 0  0 0 1 0 0  0 0 0 1 0"/>
		</filter>
	</defs>
	<mask maskUnits="userSpaceOnUse" x="9.939" y="0.441" width="4.889" height="5.567" id="mask1">
		<path fill="#FFFFFF" filter="url(#Adobe_OpacityMaskFilter_1_)" d="M9.939,0.441h4.888v5.567H9.939V0.441z"/>
	</mask>
	<g mask="url(#mask1)">
		<path fill="#FFFFFF" d="M13.547,4.292c0.842-1.021,1.41-2.439,1.256-3.851c-1.214,0.049-2.683,0.806-3.554,1.826
			c-0.78,0.905-1.462,2.345-1.28,3.731C11.322,6.104,12.703,5.311,13.547,4.292z"/>
	</g>
</g>
</svg>
