<svg width="22" height="31" viewBox="0 0 22 31" fill="none" xmlns="http://www.w3.org/2000/svg">
<path fill-rule="evenodd" clip-rule="evenodd" d="M15.5371 6C15.281 6 15.0741 5.78243 15.0741 5.51326V1.76685C15.0741 1.32198 14.9487 1.05135 14.8852 0.973473H6.11477C6.05181 1.05135 5.92589 1.32149 5.92589 1.76685V5.51326C5.92589 5.78243 5.71895 6 5.46294 6C5.2074 6 5 5.78243 5 5.51326V1.76685C5 0.74276 5.4472 0 6.06338 0H14.9371C15.5528 0 16 0.74276 16 1.76685V5.51326C16 5.78243 15.7931 6 15.5371 6Z" fill="#A72B2A"/>
<path fill-rule="evenodd" clip-rule="evenodd" d="M1.67278 4.96747C1.2458 4.96747 0.897837 5.31444 0.897837 5.74119V28.3303C0.897837 28.7566 1.2458 29.1035 1.67278 29.1035H19.975C20.402 29.1035 20.749 28.7566 20.749 28.3303V5.74119C20.749 5.31444 20.402 4.96747 19.975 4.96747H1.67278ZM19.975 30.0001H1.67278C0.750123 30.0001 -0.00012207 29.251 -0.00012207 28.3303V5.74119C-0.00012207 4.81999 0.750123 4.07092 1.67278 4.07092H19.975C20.8967 4.07092 21.647 4.81999 21.647 5.74119V28.3303C21.647 29.251 20.8967 30.0001 19.975 30.0001Z" fill="#A72B2A"/>
</svg>
