<svg width="24" height="24" viewBox="0 0 24 24" fill="none" xmlns="http://www.w3.org/2000/svg">
<path fill-rule="evenodd" clip-rule="evenodd" d="M10.9914 12.0317C9.78429 10.8313 8.65693 9.71536 7.5353 8.59355C5.11778 6.17539 2.70269 3.75474 0.288179 1.33343C-0.0197801 1.02455 -0.0787635 0.6931 0.100898 0.374769C0.268249 0.0784272 0.614676 -0.079309 0.948061 0.0400926C1.12237 0.102542 1.28474 0.233818 1.41876 0.367732C4.81327 3.76067 8.20368 7.15765 11.5924 10.5563C11.7204 10.6846 11.8253 10.836 11.9525 10.9909C12.1109 10.8397 12.208 10.7511 12.3008 10.6582C15.6749 7.27932 19.0485 3.90001 22.4222 0.520778C22.4911 0.451585 22.5596 0.381806 22.6294 0.313419C23.0191 -0.0679479 23.4731 -0.101665 23.7884 0.227001C24.1012 0.552955 24.0677 0.973097 23.6844 1.35747C21.3822 3.66649 19.0777 5.97331 16.7739 8.28086C15.6349 9.42173 14.4972 10.5637 13.3549 11.7011C13.2609 11.7947 13.1354 11.8567 12.992 11.9558C14.4305 13.3864 15.7919 14.7349 17.1474 16.0895C19.3242 18.265 21.4974 20.4439 23.6711 22.6224C24.0679 23.02 24.1052 23.4514 23.7779 23.7794C23.4559 24.1019 23.0087 24.0643 22.6208 23.6759C19.229 20.2804 15.8379 16.8842 12.4473 13.4875C12.3096 13.3495 12.1795 13.2041 12.0179 13.0325C11.8924 13.1525 11.7879 13.2482 11.6879 13.3484C8.29659 16.7445 4.90566 20.1411 1.5143 23.5373C1.41092 23.6409 1.31127 23.7506 1.19608 23.8397C0.893986 24.0736 0.494438 24.0475 0.228536 23.7876C-0.0499679 23.5153 -0.0767852 23.104 0.171678 22.7924C0.255061 22.6879 0.355369 22.5966 0.450182 22.5016C3.83165 19.1129 7.21305 15.7241 10.5967 12.3378C10.6997 12.2348 10.828 12.1571 10.9914 12.0317Z" fill="white"/>
</svg>
