<svg width="148" height="148" viewBox="0 0 148 148" fill="none" xmlns="http://www.w3.org/2000/svg">
<path fill-rule="evenodd" clip-rule="evenodd" d="M88.6112 47C87.8431 47 87.2223 46.3473 87.2223 45.5398V34.3006C87.2223 32.9659 86.846 32.1541 86.6557 31.9204H60.3443C60.1554 32.1541 59.7777 32.9645 59.7777 34.3006V45.5398C59.7777 46.3473 59.1569 47 58.3888 47C57.6222 47 57 46.3473 57 45.5398V34.3006C57 31.2283 58.3416 29 60.1901 29H86.8112C88.6584 29 90 31.2283 90 34.3006V45.5398C90 46.3473 89.3792 47 88.6112 47Z" fill="#A72B2A"/>
<mask id="mask0" mask-type="alpha" maskUnits="userSpaceOnUse" x="41" y="41" width="66" height="79">
<path fill-rule="evenodd" clip-rule="evenodd" d="M41 41.2148H106.624V119.743H41V41.2148Z" fill="white"/>
</mask>
<g mask="url(#mask0)">
<path fill-rule="evenodd" clip-rule="evenodd" d="M46.071 43.9301C44.7766 43.9301 43.7217 44.9809 43.7217 46.2734V114.686C43.7217 115.978 44.7766 117.028 46.071 117.028H101.556C102.85 117.028 103.902 115.978 103.902 114.686V46.2734C103.902 44.9809 102.85 43.9301 101.556 43.9301H46.071ZM101.556 119.744H46.071C43.2739 119.744 40.9995 117.475 40.9995 114.686V46.2734C40.9995 43.4835 43.2739 41.2148 46.071 41.2148H101.556C104.35 41.2148 106.624 43.4835 106.624 46.2734V114.686C106.624 117.475 104.35 119.744 101.556 119.744Z" fill="#A72B2A"/>
</g>
<path fill-rule="evenodd" clip-rule="evenodd" d="M74 146C113.765 146 146 113.765 146 74C146 34.2355 113.765 2 74 2C34.2355 2 2 34.2355 2 74C2 113.765 34.2355 146 74 146Z" stroke="#A72B2A" stroke-width="3"/>
</svg>
