<svg width="29" height="38" viewBox="0 0 29 38" fill="none" xmlns="http://www.w3.org/2000/svg"> <path fill-rule="evenodd" clip-rule="evenodd" d="M12.0182 19.0494C8.26955 18.5721 5.34104 21.6286 5 25C5 25 7.52888 20.408 12.067 21.3221C12.664 21.4426 13.6432 21.3653 13.9341 20.7375C14.3532 19.8339 12.662 19.1309 12.0182 19.0494Z" fill="white"/> <path fill-rule="evenodd" clip-rule="evenodd" d="M15.3565 28.4447C14.9562 28.1256 14.2095 27.9891 13.6816 28.0007C13.078 28.0129 12.4794 28.1616 11.9267 28.3781C10.6834 28.8642 9.60221 29.9029 9 31C9.65535 30.609 10.3511 30.2682 11.0773 30.0014C11.8686 29.7101 12.7316 29.4114 13.5888 29.6307C14.2654 29.8038 15.2531 30.6368 15.8595 29.8866C16.2449 29.4114 15.7575 28.7644 15.3565 28.4447Z" fill="white"/> <mask id="mask0" mask-type="alpha" maskUnits="userSpaceOnUse" x="0" y="0" width="29" height="38"> <path fill-rule="evenodd" clip-rule="evenodd" d="M0 0.179443H28.5063V37.9996H0V0.179443Z" fill="white"/> </mask> <g mask="url(#mask0)"> <path fill-rule="evenodd" clip-rule="evenodd" d="M14.2942 33.9986C12.3654 33.9986 9.6387 33.5249 8.22849 32.0992C5.94423 29.7891 9.23877 27.3014 11.4266 26.6095C12.8934 26.145 13.9826 27.8052 15.4414 27.2896C16.1927 27.0236 16.7154 26.4818 16.8428 25.8849C16.9447 25.4099 16.795 24.8995 16.3107 24.4671C12.9724 21.4907 6.51479 24.1998 4.93935 28.0188C4.40521 26.8172 4.10712 25.4944 4.10712 24.1022C4.10712 18.6367 8.66754 14.2052 14.2942 14.2052C19.9202 14.2052 24.4813 18.6367 24.4813 24.1022C24.4813 29.5676 19.9209 33.9986 14.2942 33.9986ZM22.4621 12.7323C20.739 11.5458 18.7346 10.7242 16.565 10.3829C16.4814 10.3698 16.3977 10.358 16.3134 10.3462C16.1677 10.3259 16.0214 10.3075 15.8744 10.2918C15.3557 10.2355 14.8284 10.2047 14.2942 10.2047C10.5343 10.2047 7.11772 11.6343 4.57584 13.966L4.62912 1.72346C4.63384 0.763633 4.00258 0.189047 2.94105 0.184461L1.79454 0.179219C0.734351 0.175288 0.0983742 0.745288 0.0936532 1.70446L-9.09588e-05 23.1764C-0.00413747 24.1487 0.0720718 25.0928 0.218421 26.0068C0.403886 27.3296 0.779537 28.5934 1.31907 29.7707C1.36291 29.8664 1.4054 29.9627 1.45126 30.057C1.46947 30.095 1.48768 30.1337 1.50656 30.171C3.64919 34.4801 8.00256 37.5411 13.1248 37.9493C13.4134 37.9722 13.7048 37.9866 13.9988 37.9931C14.0804 37.9945 14.1607 37.9984 14.2423 37.9984C14.2598 37.9984 14.2767 37.9997 14.2942 37.9997C14.3414 37.9997 14.3886 37.9971 14.4358 37.9971C14.5255 37.9958 14.6146 37.9925 14.7036 37.9899C15.1359 37.9781 15.5635 37.9473 15.9857 37.8988C16.0457 37.8916 16.1057 37.8844 16.1657 37.8765C16.5164 37.8313 16.8644 37.7769 17.207 37.7068C17.412 37.6649 17.6157 37.619 17.8174 37.5686C17.8484 37.5607 17.8781 37.5529 17.9084 37.545C24.0065 35.9811 28.5062 30.5563 28.5062 24.1022C28.5062 20.8283 27.3456 17.8217 25.4086 15.4467C24.5643 14.4109 23.5722 13.4963 22.4621 12.7323Z" fill="white"/> </g> </svg>