
<svg version="1.1" id="Layer_1" xmlns="http://www.w3.org/2000/svg" xmlns:xlink="http://www.w3.org/1999/xlink" x="0px" y="0px"
	 width="52px" height="54px" viewBox="0 0 52 54" enable-background="new 0 0 52 54" xml:space="preserve">
<path fill="#A72B2A" d="M23.037,17.524c0-0.266-0.215-0.481-0.481-0.481s-0.481,0.215-0.481,0.481c0,1.726,0.343,3.397,1.02,4.97
	c0.079,0.181,0.256,0.291,0.442,0.291c0.064,0,0.128-0.013,0.19-0.04c0.245-0.105,0.357-0.388,0.252-0.632
	C23.354,20.663,23.037,19.118,23.037,17.524z"/>
<defs>
	<filter id="Adobe_OpacityMaskFilter" filterUnits="userSpaceOnUse" x="0" y="1" width="51.449" height="51.416">
		<feColorMatrix  type="matrix" values="1 0 0 0 0  0 1 0 0 0  0 0 1 0 0  0 0 0 1 0"/>
	</filter>
</defs>
<mask maskUnits="userSpaceOnUse" x="0" y="1" width="51.449" height="51.416" id="mask0">
	<path fill="#FFFFFF" filter="url(#Adobe_OpacityMaskFilter)" d="M0,1h51.449v51.416H0V1z"/>
</mask>
<g mask="url(#mask0)">
	<path fill="#A72B2A" d="M34.654,33.6c-8.729,0-15.833-7.097-15.833-15.819c0-8.722,7.103-15.818,15.833-15.818
		c8.73,0,15.834,7.096,15.834,15.818C50.488,26.503,43.385,33.6,34.654,33.6z M34.654,1c-9.26,0-16.793,7.528-16.793,16.781
		c0,4.456,1.758,8.501,4.605,11.508L0.141,51.594c-0.188,0.189-0.188,0.493,0,0.682c0.094,0.095,0.217,0.141,0.34,0.141
		s0.246-0.046,0.34-0.141l22.326-22.305c3.009,2.838,7.053,4.592,11.507,4.592c9.262,0,16.795-7.528,16.795-16.782
		C51.449,8.528,43.916,1,34.654,1z"/>
</g>
<path fill="#A72B2A" d="M41.011,6.419c-0.225-0.146-0.521-0.078-0.664,0.146c-0.143,0.224-0.077,0.522,0.146,0.665
	c4.17,2.664,6.197,7.69,5.047,12.509c-0.063,0.258,0.098,0.518,0.355,0.579c0.039,0.009,0.075,0.014,0.113,0.014
	c0.217,0,0.414-0.148,0.467-0.37C47.721,14.745,45.525,9.303,41.011,6.419z"/>
<path fill="#A72B2A" d="M35.122,21.977v-4.171c0.992,0.178,1.749,1.044,1.749,2.086S36.114,21.799,35.122,21.977z M32.518,14.682
	c0-1.005,0.703-1.845,1.643-2.064v4.128C33.221,16.526,32.518,15.687,32.518,14.682z M35.122,16.843v-4.225
	c0.938,0.219,1.644,1.059,1.644,2.064c0,0.266,0.215,0.482,0.48,0.482s0.48-0.216,0.48-0.482c0-1.537-1.133-2.805-2.604-3.038v-0.7
	c0-0.266-0.215-0.482-0.481-0.482c-0.266,0-0.48,0.216-0.48,0.482v0.7c-1.473,0.233-2.605,1.501-2.605,3.038
	c0,1.536,1.133,2.805,2.605,3.037v4.203c-0.884-0.257-1.537-1.064-1.537-2.03c0-0.266-0.215-0.481-0.48-0.481
	c-0.267,0-0.481,0.215-0.481,0.481c0,1.5,1.078,2.751,2.499,3.026v0.712c0,0.266,0.215,0.482,0.48,0.482
	c0.267,0,0.481-0.216,0.481-0.482v-0.69c1.522-0.188,2.711-1.475,2.711-3.048C37.833,18.319,36.645,17.031,35.122,16.843z"/>
</svg>
