
<svg version="1.1" id="Layer_1" xmlns="http://www.w3.org/2000/svg" xmlns:xlink="http://www.w3.org/1999/xlink" x="0px" y="0px"
	 width="27px" height="53px" viewBox="0 0 27 53" enable-background="new 0 0 27 53" xml:space="preserve">
<path fill="#A72B2A" d="M23.377,24.662c-2.063,2.862-5.381,4.323-9.861,4.338H13.44c-4.431,0-7.722-1.431-9.779-4.252
	c-2.469-3.386-2.893-8.321-2.564-12.875c0.118,0.023,0.242,0.021,0.359-0.034l0.608-0.291C3.713,10.752,5.272,10,8.216,10
	c2.94,0,4.499,0.751,6.149,1.546c1.695,0.817,3.448,1.662,6.655,1.662c2.218,0,3.733-0.414,4.913-0.878
	C26.2,16.717,25.732,21.392,23.377,24.662z M22,47.995C22,50.166,18.107,52,13.5,52C8.892,52,5,50.166,5,47.995
	c0-2.053,3.477-3.802,7.747-3.987v3.121c0,0.303,0.267,0.55,0.596,0.55s0.596-0.247,0.596-0.55V44
	C18.352,44.112,22,45.894,22,47.995z M3.056,1.04L23.869,1c0.408,1.241,1.68,5.396,2.131,10.099C24.816,11.578,23.388,12,21.109,12
	c-2.984,0-4.566-0.723-6.241-1.488c-1.719-0.786-3.499-1.599-6.75-1.599c-3.257,0-5.035,0.813-6.754,1.601L1,10.678
	C1.479,6.169,2.666,2.241,3.056,1.04z M24.563,0.385C24.484,0.155,24.268,0,24.023,0h-0.002L2.941,0.043
	C2.696,0.044,2.479,0.2,2.401,0.431C2.17,1.115-3.172,17.298,2.866,25.571C5.051,28.566,8.465,30.117,13,30.213
	c-0.082,0.098-0.138,0.219-0.138,0.355v11.945c-4.846,0.203-8.548,2.426-8.548,5.234c0,2.945,4.072,5.252,9.269,5.252
	c5.197,0,9.269-2.307,9.269-5.252c0-2.865-3.855-5.121-8.849-5.242V30.568c0-0.135-0.055-0.255-0.135-0.353
	c4.629-0.095,8.102-1.679,10.307-4.734C30.172,17.168,24.795,1.066,24.563,0.385z"/>
</svg>
