<svg version="1.1" id="Layer_1" xmlns="http://www.w3.org/2000/svg" xmlns:xlink="http://www.w3.org/1999/xlink" x="0px" y="0px"
	 width="74px" height="51px" viewBox="0 0 74 51" enable-background="new 0 0 74 51" xml:space="preserve">
<path fill="#A72B2A" d="M20.871,23.505H4.39c-1.916,0-3.475-1.559-3.475-3.475c0-1.916,1.559-3.475,3.475-3.475
	c0.902,0,1.756,0.344,2.406,0.968c0.181,0.175,0.471,0.168,0.647-0.013c0.174-0.183,0.168-0.471-0.014-0.646
	c-0.821-0.79-1.9-1.224-3.04-1.224C1.969,15.641,0,17.609,0,20.03c0,2.421,1.968,4.39,4.389,4.39h16.481
	c0.252,0,0.458-0.205,0.458-0.458S21.124,23.505,20.871,23.505z"/>
<path fill="#A72B2A" d="M20.871,20.336h-9.407c-0.843,0-1.529-0.686-1.529-1.529c0-0.843,0.686-1.53,1.529-1.53
	c0.485,0,0.947,0.235,1.235,0.628c0.149,0.203,0.436,0.247,0.639,0.098c0.204-0.15,0.248-0.436,0.099-0.639
	c-0.46-0.626-1.197-1.001-1.973-1.001c-1.347,0-2.444,1.097-2.444,2.445c0,1.347,1.097,2.443,2.444,2.443h9.407
	c0.252,0,0.457-0.205,0.457-0.457S21.124,20.336,20.871,20.336z"/>
<path fill="#A72B2A" d="M20.871,26.627H7.913c-1.957,0-3.549,1.592-3.549,3.549s1.592,3.549,3.549,3.549
	c1.128,0,2.199-0.544,2.866-1.455c0.148-0.204,0.105-0.49-0.099-0.64c-0.205-0.147-0.49-0.104-0.639,0.1
	c-0.496,0.677-1.291,1.079-2.128,1.079c-1.453,0-2.634-1.18-2.634-2.633s1.181-2.635,2.634-2.635h12.958
	c0.252,0,0.457-0.204,0.457-0.457C21.328,26.832,21.124,26.627,20.871,26.627z"/>
<defs>
	<filter id="Adobe_OpacityMaskFilter" filterUnits="userSpaceOnUse" x="22.55" y="0.85" width="49.684" height="40.111">
		<feColorMatrix  type="matrix" values="1 0 0 0 0  0 1 0 0 0  0 0 1 0 0  0 0 0 1 0"/>
	</filter>
</defs>
<mask maskUnits="userSpaceOnUse" x="22.55" y="0.85" width="49.684" height="40.111" id="mask0">
	<path fill="#FFFFFF" filter="url(#Adobe_OpacityMaskFilter)" d="M22.55,0.851h49.683v40.111H22.55V0.851z"/>
</mask>
<g mask="url(#mask0)">
	<path fill="#A72B2A" d="M71.307,11.401l-2.9,21.253c-0.154,1.121-1.123,1.967-2.254,1.967H32.95l-4.046-24.63h41.172
		c0.359,0,0.7,0.155,0.936,0.425C71.248,10.687,71.355,11.045,71.307,11.401z M71.701,9.815c-0.41-0.47-1.002-0.739-1.625-0.739
		H28.753l-1.289-7.844c-0.036-0.222-0.227-0.383-0.451-0.383h-4.006c-0.252,0-0.458,0.205-0.458,0.458s0.205,0.457,0.458,0.457
		h3.617l6.378,38.814c0.036,0.222,0.227,0.383,0.452,0.383h34.93c0.252,0,0.457-0.205,0.457-0.457s-0.205-0.457-0.457-0.457H33.842
		l-0.741-4.51h33.051c1.586,0,2.945-1.186,3.159-2.759l2.901-21.253C72.298,10.908,72.111,10.286,71.701,9.815z"/>
</g>
<path fill="#A72B2A" d="M40.314,49.468c-1.645,0-2.982-1.337-2.982-2.981s1.337-2.982,2.982-2.982s2.982,1.338,2.982,2.982
	S41.959,49.468,40.314,49.468z M40.314,42.589c-2.148,0-3.896,1.749-3.896,3.897s1.748,3.896,3.896,3.896s3.896-1.748,3.896-3.896
	S42.463,42.589,40.314,42.589z"/>
<path fill="#A72B2A" d="M63.366,49.468c-1.646,0-2.981-1.337-2.981-2.981s1.336-2.982,2.981-2.982c1.645,0,2.981,1.338,2.981,2.982
	S65.011,49.468,63.366,49.468z M63.366,42.589c-2.149,0-3.896,1.749-3.896,3.897s1.747,3.896,3.896,3.896s3.896-1.748,3.896-3.896
	S65.516,42.589,63.366,42.589z"/>
<path fill="#A72B2A" d="M61.285,22.83c-1.083,0.479-2.377,0.924-4.506,0.924c-2.637,0-4.033-0.679-5.512-1.397
	c-1.506-0.731-3.063-1.487-5.909-1.487c-2.852,0-4.409,0.758-5.915,1.49l-0.53,0.256c-0.229,0.108-0.325,0.38-0.218,0.609
	c0.107,0.229,0.38,0.326,0.609,0.217l0.538-0.26c1.479-0.719,2.875-1.397,5.516-1.397c2.636,0,4.032,0.677,5.51,1.395
	c1.507,0.732,3.064,1.489,5.911,1.489c2.305,0,3.758-0.507,4.877-1.002c0.23-0.103,0.334-0.372,0.231-0.604
	C61.785,22.832,61.516,22.728,61.285,22.83z"/>
</svg>
