<svg width="19" height="24" viewBox="0 0 19 24" fill="none" xmlns="http://www.w3.org/2000/svg">
<mask id="mask0" mask-type="alpha" maskUnits="userSpaceOnUse" x="0" y="0" width="19" height="24">
<path fill-rule="evenodd" clip-rule="evenodd" d="M0 0.000217438H19V23.5636H0V0.000217438Z" fill="white"/>
</mask>
<g mask="url(#mask0)">
<path fill-rule="evenodd" clip-rule="evenodd" d="M18.1364 20.4094C18.1364 21.6674 17.1233 22.6911 15.8784 22.6911H3.12161C1.87668 22.6911 0.863636 21.6674 0.863636 20.4094V11.882C0.863636 10.6239 1.87668 9.60022 3.12161 9.60022H15.8784C17.1233 9.60022 18.1364 10.6239 18.1364 11.882V20.4094ZM3.45455 6.32749C3.45455 3.3192 6.16636 0.872945 9.5 0.872945C12.8336 0.872945 15.5455 3.3192 15.5455 6.32749V8.72749H3.45455V6.32749ZM16.4091 8.77636V6.32749C16.4091 2.83833 13.3095 0.000217438 9.5 0.000217438C5.6905 0.000217438 2.59091 2.83833 2.59091 6.32749V8.77636C1.1223 9.03251 0 10.3259 0 11.882V20.4098C0 22.1483 1.40039 23.5639 3.12161 23.5639H15.8784C17.5996 23.5639 19 22.1483 19 20.4094V11.882C19 10.3259 17.8777 9.03251 16.4091 8.77636Z" fill="#A72B2A"/>
</g>
<path fill-rule="evenodd" clip-rule="evenodd" d="M10.25 16.2857C10.25 16.7584 9.91363 17.1429 9.5 17.1429C9.08637 17.1429 8.75 16.7584 8.75 16.2857V13.7143C8.75 13.2416 9.08637 12.8571 9.5 12.8571C9.91363 12.8571 10.25 13.2416 10.25 13.7143V16.2857ZM9.5 12C8.67275 12 8 12.7689 8 13.7143V16.2857C8 17.2311 8.67275 18 9.5 18C10.3273 18 11 17.2311 11 16.2857V13.7143C11 12.7689 10.3273 12 9.5 12Z" fill="#A72B2A"/>
</svg>
