<svg width="20" height="26" viewBox="0 0 20 26" fill="none" xmlns="http://www.w3.org/2000/svg">
<path fill-rule="evenodd" clip-rule="evenodd" d="M9.35009 5.77231C7.37715 5.77231 5.77203 7.37742 5.77203 9.35113C5.77203 11.3248 7.37715 12.93 9.35009 12.93C11.323 12.93 12.9281 11.3248 12.9281 9.35113C12.9281 7.37742 11.323 5.77231 9.35009 5.77231ZM9.35009 13.6939C6.9558 13.6939 5.00732 11.7454 5.00732 9.35037C5.00732 6.95531 6.95503 5.00684 9.35009 5.00684C11.7451 5.00684 13.6929 6.95531 13.6929 9.35037C13.6929 11.7454 11.7444 13.6939 9.35009 13.6939Z" fill="#3F3F3F"/>
<path fill-rule="evenodd" clip-rule="evenodd" d="M9.35006 0.764706C4.61576 0.764706 0.764706 4.61653 0.764706 9.35159C0.764706 13.6118 7.81224 22.516 9.35006 24.4071C10.8871 22.5152 17.9354 13.611 17.9354 9.35159C17.9346 4.61653 14.0836 0.764706 9.35006 0.764706ZM9.35006 25.3921C9.23688 25.3921 9.12982 25.3424 9.05718 25.2552C8.68706 24.8139 0 14.3849 0 9.35159C0 4.19518 4.19441 0 9.35006 0C14.5057 0 18.7001 4.19518 18.7001 9.35159C18.7001 14.3856 10.0131 24.8139 9.64371 25.2559C9.57029 25.3424 9.46247 25.3921 9.35006 25.3921Z" fill="#3F3F3F"/>
</svg>
