<svg width="14" height="14" viewBox="0 0 14 14" fill="none" xmlns="http://www.w3.org/2000/svg">
<path fill-rule="evenodd" clip-rule="evenodd" d="M14 7C14 3.14033 10.8597 0 7 0C3.14033 0 0 3.14033 0 7C0 9.03865 0.876655 10.8762 2.27207 12.1566L2.26545 12.1624L2.49251 12.3539C2.50019 12.3603 2.50822 12.3662 2.51624 12.3721C2.52362 12.3775 2.53099 12.3829 2.53807 12.3887C2.65873 12.4888 2.78371 12.5837 2.91098 12.6756L2.91109 12.6757C2.95229 12.7054 2.99349 12.7352 3.03545 12.7642C3.17138 12.8579 3.31087 12.9467 3.45342 13.0309C3.48443 13.0492 3.51569 13.067 3.54695 13.0848L3.54709 13.0849C3.70313 13.1737 3.86247 13.2575 4.02564 13.3344L4.04371 13.3425L4.06178 13.3507C4.59353 13.5978 5.16116 13.7793 5.75476 13.8865L5.8016 13.8949C5.98589 13.9267 6.17222 13.9521 6.36084 13.9692C6.37243 13.9702 6.38402 13.9711 6.39565 13.9719C6.40423 13.9725 6.41283 13.9731 6.42146 13.9738C6.42424 13.9741 6.42703 13.9743 6.42982 13.9745C6.61767 13.9901 6.80756 14 7 14C7.19065 14 7.37876 13.9901 7.5656 13.9751C7.57744 13.974 7.58927 13.9732 7.60111 13.9724C7.61295 13.9716 7.62478 13.9707 7.63662 13.9697C7.82371 13.9527 8.00851 13.928 8.19102 13.8967L8.19724 13.8956L8.19734 13.8955C8.21107 13.8931 8.22494 13.8906 8.23862 13.888C8.82331 13.7831 9.3828 13.6057 9.90767 13.3649L9.93186 13.354C9.94325 13.3489 9.95465 13.3438 9.96596 13.3384C10.123 13.2646 10.2765 13.1849 10.4269 13.1002C10.4644 13.0791 10.5015 13.0577 10.5387 13.0358C10.6756 12.9551 10.8103 12.8708 10.9411 12.7812C10.9789 12.7555 11.016 12.7287 11.0532 12.7017L11.0532 12.7017L11.0809 12.6817C11.1926 12.6013 11.3023 12.5183 11.409 12.4315C11.4196 12.4229 11.4306 12.4149 11.4415 12.4068C11.455 12.3969 11.4685 12.3871 11.4813 12.3763L11.7142 12.1818L11.7073 12.1759C13.1149 10.8951 14 9.04909 14 7ZM0.509091 7C0.509091 3.42084 3.42084 0.509091 7 0.509091C10.5792 0.509091 13.4909 3.42084 13.4909 7C13.4909 8.92869 12.6445 10.6627 11.3046 11.8524C11.2298 11.8007 11.1544 11.7544 11.0773 11.7157L8.92207 10.6382C8.72862 10.5415 8.60847 10.347 8.60847 10.1309V9.37822C8.65836 9.31662 8.71105 9.24687 8.76553 9.17025C9.04451 8.77622 9.26825 8.33789 9.43142 7.86622C9.75393 7.71298 9.96214 7.39175 9.96214 7.02902V6.12665C9.96214 5.90596 9.8812 5.69189 9.73636 5.52364V4.33567C9.7496 4.20356 9.79644 3.458 9.25706 2.84302C8.78793 2.30745 8.02862 2.03636 7 2.03636C5.97138 2.03636 5.21207 2.30745 4.74295 2.84276C4.20356 3.45775 4.2504 4.20331 4.26364 4.33542V5.52338C4.11905 5.69164 4.03785 5.90571 4.03785 6.1264V7.02876C4.03785 7.30902 4.1636 7.57044 4.37895 7.74684C4.58513 8.55451 5.00945 9.16593 5.16625 9.37313V10.1098C5.16625 10.3175 5.05298 10.5084 4.87047 10.6082L2.85778 11.706C2.79364 11.7409 2.73 11.7816 2.66636 11.8272C1.34298 10.638 0.509091 8.91469 0.509091 7ZM10.5361 12.4389C10.628 12.3791 10.7187 12.3164 10.8077 12.2518C10.8174 12.2448 10.8272 12.2379 10.8369 12.231C10.8549 12.2183 10.8728 12.2056 10.8905 12.1922C10.877 12.1851 10.8635 12.178 10.8497 12.1711L8.69451 11.0936C8.32745 10.9103 8.09938 10.5412 8.09938 10.1309V9.18935L8.16251 9.11731C8.21826 9.05342 8.28316 8.96993 8.34985 8.87575C8.6212 8.4924 8.83502 8.06145 8.9852 7.59487L9.02593 7.46887L9.15244 7.42993C9.3296 7.3752 9.45305 7.21051 9.45305 7.02902V6.12665C9.45305 6.00829 9.40265 5.89782 9.31127 5.81535L9.22727 5.73949L9.22956 4.28833L9.22959 4.28807C9.2312 4.27294 9.29702 3.65558 8.86989 3.17316C8.5008 2.75673 7.87207 2.54545 7 2.54545C6.12462 2.54545 5.49385 2.75851 5.12578 3.178C4.69458 3.66953 4.76967 4.28171 4.77044 4.28782L4.77273 4.32116V5.73898L4.68873 5.81484C4.59709 5.89756 4.54695 6.00778 4.54695 6.12615V7.02851C4.54695 7.17131 4.62025 7.30367 4.74269 7.38284L4.82949 7.43909L4.85265 7.53989C5.06062 8.44633 5.61095 9.11578 5.61655 9.12214L5.67509 9.19291L5.67535 10.1098C5.67535 10.5041 5.46025 10.8663 5.11407 11.0552L3.10138 12.153L3.07695 12.1668C3.08267 12.1711 3.08827 12.1755 3.09386 12.18C3.09947 12.1845 3.10507 12.1889 3.1108 12.1932C3.22178 12.2765 3.33582 12.3551 3.45138 12.4307C3.48804 12.4547 3.52495 12.4783 3.56211 12.5017C3.6876 12.5801 3.81487 12.6552 3.94495 12.7247C3.95623 12.7308 3.96771 12.7367 3.9792 12.7425C3.98637 12.7461 3.99355 12.7498 4.00069 12.7535C4.14324 12.8276 4.28756 12.8978 4.43469 12.9612L4.438 12.9627C4.59353 13.0294 4.75185 13.0897 4.91196 13.1442L4.942 13.1544C5.26451 13.2626 5.59567 13.3453 5.93218 13.4016L5.95356 13.4054C6.11265 13.4313 6.27327 13.4504 6.43465 13.4647C6.45539 13.4666 6.47628 13.4681 6.49719 13.4696C6.50401 13.4701 6.51082 13.4706 6.51764 13.4711C6.67775 13.483 6.83862 13.4909 7 13.4909C7.1596 13.4909 7.31844 13.4833 7.47651 13.4713C7.48327 13.4708 7.49002 13.4704 7.49676 13.4699C7.51842 13.4684 7.53998 13.4669 7.56153 13.4649C7.72138 13.4509 7.88073 13.4324 8.0388 13.4067L8.05255 13.4041C8.22055 13.3764 8.38753 13.3425 8.55247 13.3018L8.554 13.3015C8.71742 13.2611 8.87906 13.214 9.03865 13.161C9.04493 13.159 9.05112 13.1568 9.05728 13.1547C9.06186 13.1532 9.06642 13.1516 9.07098 13.1501C9.37567 13.0475 9.67222 12.9212 9.95884 12.7744C9.96892 12.7692 9.979 12.7641 9.98907 12.759C10.0067 12.75 10.0243 12.7411 10.0418 12.7319C10.1665 12.6657 10.2887 12.5949 10.4089 12.5206C10.4474 12.4966 10.4851 12.4721 10.523 12.4475L10.5361 12.4389Z" fill="#3F3F3F"/>
</svg>
