<svg width="14" height="14" viewBox="0 0 14 14" fill="none" xmlns="http://www.w3.org/2000/svg">
<path fill-rule="evenodd" clip-rule="evenodd" d="M9.19524 0.371099L13.6284 4.80438C14.1239 5.29987 14.1239 6.10616 13.6284 6.60171L6.81379 13.4166L9.91632 13.4167C10.0774 13.4167 10.208 13.5472 10.208 13.7083C10.208 13.8694 10.0774 14 9.91632 14L5.70394 13.9999L5.70281 14L5.70169 13.9999H4.08324C3.92219 13.9999 3.79159 13.8693 3.79159 13.7083C3.79159 13.5472 3.92219 13.4166 4.08324 13.4166H4.59195L0.918039 9.74255L0.917875 9.74239L0.917738 9.74225L0.371082 9.19557C0.131797 8.9563 0 8.63713 0 8.2969C0 7.95668 0.131797 7.63756 0.371082 7.39824L7.39794 0.371044C7.63725 0.131748 7.9564 0 8.29659 0C8.6368 0 8.95593 0.131803 9.19524 0.371099ZM6.18901 13.2165L13.2159 6.18923C13.4839 5.92114 13.484 5.48491 13.2159 5.21682L10.7731 2.77393L4.02467 9.52264C3.96772 9.57957 3.89307 9.60807 3.81845 9.60807C3.74383 9.60807 3.66918 9.5796 3.61222 9.52267C3.49833 9.40872 3.49833 9.22404 3.61222 9.11017L10.3606 2.36143L8.78279 0.78357C8.65367 0.654447 8.48099 0.58335 8.29659 0.58335C8.11218 0.58335 7.93951 0.654447 7.81039 0.783543L0.783535 7.81071C0.654418 7.93983 0.583324 8.11252 0.583324 8.29693C0.583324 8.48135 0.654418 8.654 0.783508 8.7831L1.1241 9.12371L7.8724 2.37505C7.98635 2.26113 8.17097 2.26113 8.28488 2.37502C8.39877 2.48891 8.39877 2.6736 8.28488 2.78749L1.53658 9.53615L5.2167 13.2165C5.34551 13.3453 5.51772 13.4163 5.70167 13.4166H5.70388C5.88788 13.4163 6.06014 13.3453 6.18901 13.2165Z" fill="#3F3F3F"/>
<path fill-rule="evenodd" clip-rule="evenodd" d="M6.91098 9.08901C6.79228 8.97031 6.59985 8.97034 6.48107 9.08901L4.08902 11.4811C3.97033 11.5998 3.97033 11.7922 4.08902 11.911C4.14839 11.9703 4.22619 12 4.30396 12C4.38174 12 4.45954 11.9703 4.51891 11.911L6.91095 9.51893C7.02968 9.40017 7.02968 9.20771 6.91098 9.08901Z" fill="#3F3F3F"/>
<path fill-rule="evenodd" clip-rule="evenodd" d="M6.34688 11.1121L5.11205 12.3469C4.96265 12.4963 4.96265 12.7385 5.11205 12.8879C5.18677 12.9626 5.28469 13 5.38258 13C5.48054 13 5.5784 12.9626 5.65312 12.8879L6.88795 11.6532C7.03735 11.5038 7.03735 11.2615 6.88795 11.1121C6.73855 10.9626 6.49639 10.9626 6.34688 11.1121Z" fill="#3F3F3F"/>
<path fill-rule="evenodd" clip-rule="evenodd" d="M7.29585 9.12079L7.12085 9.29575C6.95972 9.45683 6.95972 9.71799 7.12081 9.87914C7.20133 9.9597 7.30695 10 7.4125 10C7.51804 10 7.62363 9.9597 7.70415 9.87914L7.87915 9.70418C8.04028 9.54311 8.04028 9.28194 7.87919 9.12083C7.71819 8.95975 7.45693 8.95971 7.29585 9.12079Z" fill="#3F3F3F"/>
<path fill-rule="evenodd" clip-rule="evenodd" d="M11.1559 5C11.2144 5 11.2705 5.02323 11.3118 5.06458L11.9354 5.68821C12.0215 5.7743 12.0215 5.91391 11.9354 6.00001L11 6.93542C10.957 6.97846 10.9006 7 10.8441 7C10.7877 7 10.7313 6.97848 10.6882 6.93542L10.0646 6.31184C10.0232 6.27049 10 6.21441 10 6.15593C10 6.09745 10.0232 6.04139 10.0646 6.00003L11 5.06458C11.0414 5.02323 11.0975 5 11.1559 5ZM10.5323 6.15593L10.8441 6.46774L11.4677 5.84413L11.1559 5.5323L10.5323 6.15593Z" fill="#3F3F3F"/>
<path fill-rule="evenodd" clip-rule="evenodd" d="M8.41252 2C8.51814 2 8.62372 1.9597 8.70424 1.87911L8.87925 1.70405C9.04029 1.54295 9.04025 1.28177 8.87913 1.12074C8.71805 0.959715 8.4568 0.959753 8.29576 1.12086L8.12075 1.29592C7.95971 1.45702 7.95975 1.71821 8.12087 1.87923C8.20143 1.95978 8.30693 2 8.41252 2Z" fill="#3F3F3F"/>
<path fill-rule="evenodd" clip-rule="evenodd" d="M2.29582 9.12084L2.12081 9.29583C1.95973 9.45687 1.95973 9.71807 2.12081 9.87922C2.20137 9.95974 2.30695 10 2.4125 10C2.51804 10 2.62362 9.95974 2.70418 9.87922L2.87919 9.70423C3.04027 9.54311 3.04027 9.28191 2.87919 9.12084C2.71807 8.95972 2.45694 8.95972 2.29582 9.12084Z" fill="#3F3F3F"/>
</svg>
