<svg width="13" height="14" viewBox="0 0 13 14" fill="none" xmlns="http://www.w3.org/2000/svg">
<path fill-rule="evenodd" clip-rule="evenodd" d="M12.1727 6.72659H10.1617V0.273459C10.1617 0.162881 10.0955 0.063158 9.99395 0.0208298C9.89238 -0.0215256 9.77551 0.0019353 9.69783 0.0800838L8.92807 0.854678L8.15837 0.0801111C8.05227 -0.0266663 7.88022 -0.0266663 7.77408 0.0801111L7.00436 0.854705L6.23471 0.0801111C6.12861 -0.0266663 5.95655 -0.0266663 5.85042 0.0801111L5.08069 0.854705L4.31094 0.0801111C4.20483 -0.0266663 4.03278 -0.0266663 3.92668 0.0801111L3.15695 0.854705L2.38728 0.0801111C2.28117 -0.0266663 2.10912 -0.0266663 2.00299 0.0801111L1.23326 0.854705L0.463562 0.0801111C0.358108 -0.02601 0.18755 -0.0265569 0.081172 0.0786072C0.0253066 0.133869 -0.00178384 0.207506 9.10234e-05 0.28065V12.5782C9.10234e-05 13.3622 0.633903 14 1.41298 14H11.0312H11.0313H11.0316C11.8106 14 12.4444 13.3622 12.4444 12.5782V7C12.4444 6.84898 12.3228 6.72659 12.1727 6.72659ZM1.41298 13.4531C0.933528 13.4531 0.543502 13.0606 0.543502 12.5782V0.933947L1.04113 1.43472C1.14723 1.5415 1.31929 1.5415 1.42542 1.43472L2.19515 0.660127L2.96487 1.43472C3.07098 1.5415 3.24303 1.5415 3.34916 1.43472L4.11889 0.660127L4.88864 1.43472C4.99475 1.5415 5.1668 1.5415 5.27291 1.43472L6.04263 0.660127L6.81236 1.43472C6.91847 1.5415 7.09052 1.5415 7.19665 1.43472L7.96638 0.660127L8.7361 1.43472C8.84224 1.5415 9.01429 1.5415 9.12037 1.43472L9.6184 0.933565V7L9.6186 7.00427L9.61878 7.00741V12.5782C9.61878 12.908 9.73127 13.2117 9.91922 13.4531H1.41298ZM11.0315 13.4531C11.511 13.4531 11.901 13.0606 11.901 12.5782V7.27343H10.1621V12.5782C10.1621 13.0606 10.5521 13.4531 11.0315 13.4531Z" fill="#3F3F3F"/>
<path fill-rule="evenodd" clip-rule="evenodd" d="M5.05534 4.00755C4.75062 4.00755 4.50272 3.83303 4.50272 3.61856C4.50272 3.40406 4.75065 3.22954 5.05534 3.22954C5.36006 3.22954 5.60795 3.40406 5.60795 3.61856C5.60795 3.75797 5.74541 3.87097 5.91498 3.87097C6.08455 3.87097 6.22201 3.75797 6.22201 3.61856C6.22201 3.20711 5.85714 2.85994 5.36236 2.7564V2.58542C5.36236 2.44601 5.22491 2.33301 5.05534 2.33301C4.88577 2.33301 4.74831 2.44601 4.74831 2.58542V2.7564C4.25351 2.85994 3.88867 3.20713 3.88867 3.61856C3.88867 4.11139 4.41206 4.51235 5.05534 4.51235C5.36006 4.51235 5.60795 4.68686 5.60795 4.90136C5.60795 5.11586 5.36006 5.29035 5.05534 5.29035C4.75062 5.29035 4.50272 5.11583 4.50272 4.90136C4.50272 4.76195 4.36527 4.64895 4.1957 4.64895C4.02613 4.64895 3.88867 4.76195 3.88867 4.90136C3.88867 5.31281 4.25354 5.65998 4.74831 5.76352V5.96949C4.74831 6.10889 4.88577 6.2219 5.05534 6.2219C5.22491 6.2219 5.36236 6.10889 5.36236 5.96949V5.76352C5.85717 5.65998 6.22201 5.31281 6.22201 4.90136C6.22201 4.40853 5.69862 4.00755 5.05534 4.00755Z" fill="#3F3F3F"/>
<path fill-rule="evenodd" clip-rule="evenodd" d="M7.58082 3.88867H7.19696C7.08818 3.88867 7 4.06278 7 4.27756C7 4.49234 7.08818 4.66645 7.19696 4.66645H7.58082C7.6896 4.66645 7.77778 4.49234 7.77778 4.27756C7.77778 4.06278 7.6896 3.88867 7.58082 3.88867Z" fill="#3F3F3F"/>
<path fill-rule="evenodd" clip-rule="evenodd" d="M2.91432 3.88867H2.53045C2.42167 3.88867 2.3335 4.06278 2.3335 4.27756C2.3335 4.49234 2.42167 4.66645 2.53045 4.66645H2.91432C3.0231 4.66645 3.11127 4.49234 3.11127 4.27756C3.11127 4.06278 3.0231 3.88867 2.91432 3.88867Z" fill="#3F3F3F"/>
<path fill-rule="evenodd" clip-rule="evenodd" d="M7.51644 7H3.37288C3.22842 7 3.11133 7.17411 3.11133 7.38889C3.11133 7.60367 3.22842 7.77778 3.37288 7.77778H7.51644C7.6609 7.77778 7.77799 7.60367 7.77799 7.38889C7.77797 7.17411 7.6609 7 7.51644 7Z" fill="#3F3F3F"/>
<path fill-rule="evenodd" clip-rule="evenodd" d="M2.2195 7.11394C2.14716 7.04161 2.04683 7 1.94455 7C1.84228 7 1.74194 7.04161 1.66961 7.11394C1.59728 7.18628 1.55566 7.28661 1.55566 7.38889C1.55566 7.49117 1.59728 7.5915 1.66961 7.66383C1.74194 7.73617 1.84228 7.77778 1.94455 7.77778C2.04683 7.77778 2.14716 7.73617 2.2195 7.66383C2.29183 7.5915 2.33344 7.49117 2.33344 7.38889C2.33344 7.28661 2.29183 7.18628 2.2195 7.11394Z" fill="#3F3F3F"/>
<path fill-rule="evenodd" clip-rule="evenodd" d="M7.51644 9.33301H3.37288C3.22842 9.33301 3.11133 9.50711 3.11133 9.7219C3.11133 9.93668 3.22842 10.1108 3.37288 10.1108H7.51644C7.6609 10.1108 7.77799 9.93668 7.77799 9.7219C7.77797 9.50711 7.6609 9.33301 7.51644 9.33301Z" fill="#3F3F3F"/>
<path fill-rule="evenodd" clip-rule="evenodd" d="M2.2195 9.44695C2.14716 9.37462 2.04683 9.33301 1.94455 9.33301C1.84228 9.33301 1.74194 9.37462 1.66961 9.44695C1.59728 9.51929 1.55566 9.61962 1.55566 9.7219C1.55566 9.82417 1.59728 9.92451 1.66961 9.99684C1.74194 10.0692 1.84228 10.1108 1.94455 10.1108C2.04683 10.1108 2.14716 10.0692 2.2195 9.99684C2.29183 9.92451 2.33344 9.82417 2.33344 9.7219C2.33344 9.61962 2.29183 9.51929 2.2195 9.44695Z" fill="#3F3F3F"/>
<path fill-rule="evenodd" clip-rule="evenodd" d="M7.51644 10.8887H3.37288C3.22842 10.8887 3.11133 11.0628 3.11133 11.2776C3.11133 11.4923 3.22842 11.6664 3.37288 11.6664H7.51644C7.6609 11.6664 7.77799 11.4923 7.77799 11.2776C7.77799 11.0628 7.6609 10.8887 7.51644 10.8887Z" fill="#3F3F3F"/>
<path fill-rule="evenodd" clip-rule="evenodd" d="M2.2195 11.0026C2.14716 10.9303 2.04683 10.8887 1.94455 10.8887C1.84228 10.8887 1.74194 10.9303 1.66961 11.0026C1.59728 11.0749 1.55566 11.1753 1.55566 11.2776C1.55566 11.3798 1.59728 11.4802 1.66961 11.5525C1.74194 11.6248 1.84228 11.6664 1.94455 11.6664C2.04683 11.6664 2.14716 11.6248 2.2195 11.5525C2.29183 11.4802 2.33344 11.3798 2.33344 11.2776C2.33344 11.1753 2.29183 11.0749 2.2195 11.0026Z" fill="#3F3F3F"/>
</svg>
