<svg width="18" height="18" viewBox="0 0 18 18" fill="none" xmlns="http://www.w3.org/2000/svg">
<path fill-rule="evenodd" clip-rule="evenodd" d="M5.01711 8.4633C4.76475 8.21258 4.35466 8.21258 4.1023 8.4633C3.84993 8.71402 3.84993 9.12143 4.1023 9.37214L7.08332 12.3337C7.2095 12.4591 7.36723 12.5218 7.54073 12.5218C7.5565 12.5218 7.5565 12.5218 7.57227 12.5218C7.74577 12.5061 7.91927 12.4277 8.04545 12.2867L15.5059 3.40199C15.7267 3.1356 15.6952 2.72819 15.427 2.49314C15.1589 2.27377 14.7488 2.30511 14.5122 2.57149L7.49341 10.9234L5.01711 8.4633Z" fill="#17AB13"/>
<path fill-rule="evenodd" clip-rule="evenodd" d="M13.752 1.37496C10.184 -0.856171 5.60782 -0.329376 2.62939 2.64547C-0.876464 6.14711 -0.876464 11.8644 2.62939 15.366C4.38232 17.1168 6.69371 18 8.98958 18C11.2854 18 13.5968 17.1168 15.3498 15.366C18.3437 12.3757 18.8556 7.78947 16.6063 4.22585C16.4201 3.93147 16.0323 3.8385 15.7376 4.02443C15.4428 4.21036 15.3498 4.59771 15.5359 4.8921C17.475 7.9599 17.0251 11.8954 14.45 14.4674C11.4406 17.4732 6.52307 17.4732 3.51361 14.4674C0.504161 11.4615 0.504161 6.54995 3.51361 3.54412C6.08871 0.987612 10.0134 0.538287 13.0849 2.44405C13.3797 2.62997 13.7675 2.53701 13.9536 2.24262C14.1398 1.94824 14.0467 1.56089 13.752 1.37496Z" fill="#4A4A4A"/>
</svg>
