
<svg version="1.1" id="Layer_1" xmlns="http://www.w3.org/2000/svg" xmlns:xlink="http://www.w3.org/1999/xlink" x="0px" y="0px"
	 width="22px" height="22px" viewBox="0 0 22 22" enable-background="new 0 0 22 22" xml:space="preserve">
<g>
	<path fill="#FFFFFF" d="M0.835,1.117c-0.073,0.165-0.082,0.358-0.082,0.58v17.796c0,0.207,0.009,0.399,0.082,0.563l10.624-9.456
		L0.835,1.117z"/>
	<path fill="#FFFFFF" d="M15.576,7.298L3.007,0.616C2.5,0.302,2.009,0.231,1.577,0.345l10.827,9.832L15.576,7.298z"/>
	<defs>
		<filter id="Adobe_OpacityMaskFilter" filterUnits="userSpaceOnUse" x="13.216" y="7.736" width="8.031" height="6.542">
			<feColorMatrix  type="matrix" values="1 0 0 0 0  0 1 0 0 0  0 0 1 0 0  0 0 0 1 0"/>
		</filter>
	</defs>
	<path fill="#FFFFFF" d="M20.259,9.59l-3.468-1.854l-3.575,3.249l3.621,3.292l3.375-1.778C21.876,11.605,21.262,10.138,20.259,9.59z"/>
	<path fill="#FFFFFF" d="M1.577,21.643c0.444,0.143,0.948,0.041,1.452-0.244l12.547-6.621l-3.229-2.953L1.577,21.643z"/>
</g>
</svg>
