<svg width="19" height="19" viewBox="0 0 19 19" fill="none" xmlns="http://www.w3.org/2000/svg">
<path fill-rule="evenodd" clip-rule="evenodd" d="M7.53849 13.3049C10.7224 13.3049 13.3032 10.7237 13.3032 7.53942C13.3032 4.35512 10.7224 1.77398 7.53849 1.77398C4.35459 1.77398 1.77376 4.35512 1.77376 7.53942C1.77376 10.7237 4.35459 13.3049 7.53849 13.3049ZM11.9082 13.6836C10.6754 14.5626 9.16681 15.0788 7.53849 15.0788C3.37547 15.0788 0 11.703 0 7.53942C0 3.37589 3.37547 0 7.53849 0C11.7015 0 15.077 3.37589 15.077 7.53942C15.077 9.16793 14.5608 10.6767 13.6819 11.9096L18.6352 16.8635C19.1238 17.3513 19.1194 18.1319 18.6352 18.6162L18.6139 18.6374C18.1314 19.12 17.3456 19.1217 16.8614 18.6374L11.9082 13.6836Z" fill="#929292"/>
</svg>
