<svg width="37" height="37" viewBox="0 0 37 37" fill="none" xmlns="http://www.w3.org/2000/svg">
<path fill-rule="evenodd" clip-rule="evenodd" d="M0 18.5C0 8.29867 8.29939 0 18.5 0C28.7006 0 37 8.29867 37 18.5C37 28.7013 28.7006 37 18.5 37C8.29939 37 0 28.7013 0 18.5ZM1.42308 18.5C1.42308 27.9158 9.08421 35.5769 18.5 35.5769C27.9158 35.5769 35.5769 27.9158 35.5769 18.5C35.5769 9.08421 27.9158 1.42308 18.5 1.42308C9.08421 1.42308 1.42308 9.08421 1.42308 18.5Z" fill="#4FAE01"/>
<path fill-rule="evenodd" clip-rule="evenodd" d="M27.7509 11.2355L16.7734 23.3382L10.1601 18.1535C9.85294 17.912 9.40224 17.9617 9.15653 18.2627C8.91011 18.5651 8.96011 19.0053 9.26796 19.2468L16.4106 24.8467C16.542 24.9496 16.6999 25 16.857 25C17.0541 25 17.2506 24.9202 17.3913 24.7648L28.8195 12.1651C29.0816 11.8767 29.0552 11.4336 28.7602 11.1774C28.4645 10.9198 28.0138 10.9457 27.7509 11.2355Z" fill="#4FAE01"/>
</svg>
