<?xml version="1.0" encoding="UTF-8"?>
<svg width="20px" height="20px" viewBox="0 0 20 20" version="1.1" xmlns="http://www.w3.org/2000/svg" xmlns:xlink="http://www.w3.org/1999/xlink">
    <!-- Generator: Sketch 53 (72520) - https://sketchapp.com -->
    <title>Group 3</title>
    <desc>Created with Sketch.</desc>
    <defs>
        <polygon id="path-1" points="0 0 20 0 20 20 0 20"></polygon>
    </defs>
    <g id="Symbols" stroke="none" stroke-width="1" fill="none" fill-rule="evenodd">
        <g id="top-navigation-bar-withl-login" transform="translate(-166.000000, -35.000000)">
            <g id="Group-10" transform="translate(166.000000, 35.000000)">
                <g id="Group-3">
                    <mask id="mask-2" fill="white">
                        <use xlink:href="#path-1"></use>
                    </mask>
                    <g id="Clip-2"></g>
                    <path d="M16.0063893,17.2206986 C15.7945179,14.6831018 14.007625,12.5915434 11.6273112,11.9227871 C12.8976357,11.3127995 13.7788761,10.0180826 13.7788761,8.51752509 C13.7788761,6.43410385 12.0836033,4.73885657 9.99984931,4.73885657 C7.91639668,4.73885657 6.22112385,6.43410385 6.22112385,8.51752509 C6.22112385,10.0180826 7.10266572,11.3127995 8.37268878,11.9227871 C5.99237504,12.5915434 4.20518075,14.6831018 3.99361071,17.2206986 C1.92311749,15.495615 0.602763671,12.8992496 0.602763671,10 C0.602763671,4.81842018 4.81819141,0.602754588 10.0001507,0.602754588 C15.1818086,0.602754588 19.3972363,4.81842018 19.3972363,10 C19.3972363,12.8992496 18.0768825,15.495615 16.0063893,17.2206986 L16.0063893,17.2206986 Z M9.99984931,11.693439 C8.24882084,11.693439 6.82388752,10.2688285 6.82388752,8.51752509 C6.82388752,6.76652301 8.24882084,5.34161116 10.0001507,5.34161116 C11.7511792,5.34161116 13.1761125,6.76652301 13.1761125,8.51752509 C13.1761125,10.2688285 11.7511792,11.693439 10.0001507,11.693439 L9.99984931,11.693439 Z M4.57377074,17.6652301 C4.60662136,14.6993761 7.0267175,12.2961936 9.99984931,12.2961936 C12.968159,12.2961936 15.3849399,14.6915403 15.4250237,17.6661342 C13.8912916,18.7544076 12.0197104,19.3972454 10.0001507,19.3972454 C7.97968686,19.3972454 6.10780428,18.7544076 4.57377074,17.6652301 L4.57377074,17.6652301 Z M10.0001507,0 C4.48576724,0 0,4.48600102 0,10 C0,15.513999 4.48576724,20 10.0001507,20 C15.5142328,20 20,15.513999 20,10 C20,4.48600102 15.5142328,0 10.0001507,0 L10.0001507,0 Z" id="Fill-1" fill="#FFFFFF" mask="url(#mask-2)"></path>
                </g>
            </g>
        </g>
    </g>
</svg>